<svg width="13" height="13" viewBox="0 0 13 13" fill="none" xmlns="http://www.w3.org/2000/svg">
<path id="Combined Shape" fill-rule="evenodd" clip-rule="evenodd" d="M1.07364 1.84893C1.08033 1.29668 1.53344 0.854425 2.08568 0.861118L11.085 0.970193C11.6373 0.976886 12.0795 1.42999 12.0728 1.98224C12.0661 2.53448 11.613 2.97674 11.0608 2.97005L2.06144 2.86097C1.5092 2.85428 1.06694 2.40117 1.07364 1.84893ZM1.01304 6.84856C1.01973 6.29631 1.47284 5.85406 2.02508 5.86075L11.0244 5.96983C11.5767 5.97652 12.0189 6.42963 12.0122 6.98187C12.0055 7.53412 11.5524 7.97637 11.0002 7.96968L2.00085 7.8606C1.4486 7.85391 1.00634 7.4008 1.01304 6.84856ZM1.96449 10.8604C1.41224 10.8537 0.959135 11.2959 0.952441 11.8482C0.945748 12.4004 1.388 12.8535 1.94025 12.8602L10.9396 12.9693C11.4918 12.976 11.9449 12.5337 11.9516 11.9815C11.9583 11.4293 11.5161 10.9762 10.9638 10.9695L1.96449 10.8604Z" fill="#A6B7D4"/>
</svg>
